<?xml version="1.0" standalone="no"?>
<!DOCTYPE svg PUBLIC "-//W3C//DTD SVG 20010904//EN"
 "http://www.w3.org/TR/2001/REC-SVG-20010904/DTD/svg10.dtd">
<svg version="1.0" xmlns="http://www.w3.org/2000/svg"
 width="1280.000000pt" height="726.000000pt" viewBox="0 0 1280.000000 726.000000"
 preserveAspectRatio="xMidYMid meet">
<g transform="translate(0.000000,726.000000) scale(0.100000,-0.100000)"
fill="#53942a" stroke="none">
<path d="M2278 7137 c-311 -229 -773 -579 -780 -590 -3 -7 -1 -33 4 -59 10
-41 9 -53 -7 -81 -14 -27 -15 -38 -6 -55 10 -19 8 -27 -16 -58 l-27 -36 28
-50 28 -50 24 -461 c13 -254 24 -487 24 -517 l0 -55 -53 -3 c-88 -5 -345 -61
-472 -103 -243 -80 -474 -217 -617 -365 -214 -223 -338 -528 -338 -833 0 -84
0 -85 -35 -117 -44 -40 -46 -75 -6 -114 16 -16 27 -31 25 -32 -1 -2 26 -41 62
-87 35 -46 64 -85 64 -86 0 -12 77 -377 144 -680 l84 -380 6 -225 c22 -840
159 -1459 393 -1776 141 -189 301 -273 519 -274 50 0 151 -10 225 -22 163 -26
554 -32 704 -10 244 35 459 100 660 197 176 86 273 149 281 183 3 15 20 59 39
97 77 162 218 952 266 1495 17 200 15 563 -4 680 -21 123 -50 215 -82 263
l-26 38 20 312 c25 380 36 429 112 478 84 54 89 125 10 156 -35 14 -39 18 -31
39 6 16 2 49 -15 111 -70 263 -176 459 -344 636 -109 114 -226 202 -370 275
-239 122 -448 179 -748 203 -81 6 -149 12 -149 13 -1 0 -19 211 -40 468 -36
453 -37 470 -21 521 22 70 21 86 -5 114 -21 22 -21 26 -8 71 7 26 13 63 12 83
l-1 37 397 252 c218 139 403 258 410 265 12 10 8 25 -22 87 -20 41 -36 81 -36
88 0 7 -3 10 -6 7 -8 -7 32 -124 49 -145 6 -8 6 -16 1 -21 -5 -4 -191 -117
-414 -251 -223 -133 -411 -250 -418 -258 -7 -10 -10 -29 -6 -47 3 -20 -2 -51
-15 -85 l-21 -54 26 -39 c26 -39 26 -40 9 -84 -22 -58 -22 -54 21 -661 l37
-514 -22 -21 c-17 -18 -33 -22 -79 -21 -79 1 -102 15 -102 62 0 55 -58 1020
-65 1075 -3 27 -15 68 -27 92 l-21 43 21 27 c24 31 28 55 11 72 -9 9 -8 19 6
39 16 25 16 73 -1 117 -3 10 75 77 253 218 245 193 569 451 623 497 14 12 22
21 18 22 -3 0 -75 -51 -160 -113z m-63 -2057 c331 -57 610 -187 824 -386 139
-129 283 -362 344 -559 39 -126 42 -148 18 -169 -18 -17 -31 -17 -213 -5 -212
13 -776 7 -1052 -11 -87 -6 -160 -10 -161 -8 -1 2 -21 237 -44 523 -37 472
-39 524 -26 560 8 22 14 51 15 64 l0 24 93 -7 c50 -4 142 -16 202 -26z m-681
-75 c18 -31 28 -64 32 -107 4 -58 41 -780 46 -928 l3 -65 -35 -6 -35 -6 36 -2
37 -1 6 -122 c4 -68 8 -145 9 -173 l2 -50 -225 2 c-235 2 -456 14 -725 39
-161 15 -470 49 -535 59 -23 4 -30 2 -20 -4 22 -13 328 -67 510 -91 288 -37
726 -69 938 -70 47 0 62 -3 62 -14 0 -24 -93 -29 -439 -23 -349 6 -498 20
-756 73 -214 43 -387 106 -369 135 39 64 485 140 1254 214 91 9 170 18 175 21
22 10 -451 -6 -615 -21 -416 -37 -598 -65 -785 -120 -20 -6 -20 -3 -14 77 19
240 82 427 209 617 210 314 581 518 1090 600 109 17 115 16 144 -34z m321
-426 c14 -189 30 -400 35 -468 6 -68 10 -136 10 -151 l0 -27 -104 -9 -105 -9
-6 70 c-5 60 -55 900 -55 925 0 5 33 6 73 3 39 -3 83 0 97 5 14 5 26 9 28 7 1
-1 13 -157 27 -346z m1360 -687 l60 -8 -105 -51 c-270 -131 -665 -228 -1096
-268 l-71 -7 -11 154 c-7 84 -12 161 -12 170 0 14 12 18 73 21 123 7 1099 -2
1162 -11z m-1298 -137 c6 -77 12 -155 12 -172 l1 -33 -109 0 -109 0 -6 78 c-3
42 -8 118 -12 169 l-6 92 68 4 c38 2 87 3 109 3 l40 -1 12 -140z m1568 101
l30 -13 -40 -25 c-54 -34 -260 -108 -421 -151 -156 -42 -373 -91 -379 -85 -3
2 39 15 93 27 194 47 482 163 597 239 35 24 77 27 120 8z m-50 -191 c-30 -67
-38 -116 -66 -418 -20 -208 -24 -237 -38 -231 -9 3 -81 29 -161 56 -292 99
-658 180 -985 216 l-160 18 -3 45 -3 46 163 22 c494 66 881 154 1173 265 50
19 93 35 97 35 4 1 -4 -24 -17 -54z m-778 -91 c-3 -3 -12 -4 -19 -1 -8 3 -5 6
6 6 11 1 17 -2 13 -5z m-2532 -39 c84 -38 204 -70 382 -104 273 -53 395 -63
783 -67 l355 -3 0 -23 c0 -22 -4 -23 -121 -30 -370 -20 -750 -115 -1030 -256
l-62 -31 -6 -93 c-3 -51 -9 -151 -12 -223 l-7 -130 -102 412 -102 413 -72 80
c-40 44 -71 80 -68 80 2 0 30 -11 62 -25z m2015 -41 c-98 -14 -136 -17 -127
-7 8 7 120 20 177 20 19 0 -3 -5 -50 -13z m-200 -13 c0 -5 -35 -12 -77 -16
-124 -11 -146 -11 -150 2 -4 12 20 14 180 21 26 1 47 -2 47 -7z m8 -134 l3
-38 -113 3 -113 3 -3 27 c-3 29 4 31 123 42 91 8 100 5 103 -37z"/>
<path d="M6841 7217 c-250 -181 -883 -661 -887 -672 -4 -9 -1 -35 5 -60 10
-39 9 -48 -8 -76 -16 -25 -17 -36 -8 -56 9 -19 7 -29 -11 -53 -28 -37 -27 -47
2 -107 24 -46 25 -63 45 -488 12 -242 24 -471 27 -510 l6 -70 -46 -2 c-68 -3
-222 -31 -352 -64 -633 -160 -1022 -565 -1084 -1129 -6 -57 -10 -125 -9 -151
2 -42 -1 -51 -25 -70 -56 -44 -52 -105 7 -136 18 -9 26 -18 19 -22 -7 -4 11
-34 49 -81 32 -41 62 -84 64 -95 3 -11 23 -108 45 -215 23 -107 72 -334 110
-505 68 -306 69 -312 75 -495 32 -1021 188 -1643 483 -1935 119 -118 228 -165
397 -172 61 -2 178 -14 260 -26 198 -28 560 -30 735 -4 303 45 625 163 834
305 58 39 72 54 81 87 7 22 22 56 33 76 54 90 180 736 236 1210 37 319 49 520
43 728 -7 254 -40 418 -101 511 l-23 35 19 300 c16 255 22 312 43 380 22 72
28 82 60 100 76 40 98 106 48 144 -14 12 -36 24 -49 27 -20 5 -21 9 -12 29 18
41 -43 246 -124 412 -236 488 -725 774 -1400 818 l-97 7 -5 31 c-3 18 -21 230
-41 472 l-35 440 20 59 c21 61 18 77 -18 118 -13 16 -13 22 2 63 10 25 16 60
14 79 l-3 34 405 257 c223 142 408 261 413 265 4 3 -8 37 -28 74 -19 37 -35
74 -35 81 0 8 -4 16 -10 20 -11 7 16 -88 37 -129 12 -24 13 -30 1 -40 -7 -7
-196 -122 -421 -257 l-407 -244 1 -50 c1 -27 -6 -67 -15 -87 -21 -49 -20 -71
4 -93 24 -22 25 -33 4 -100 -16 -48 -15 -77 20 -565 20 -283 37 -535 39 -560
2 -43 0 -46 -35 -63 -28 -14 -49 -17 -82 -12 -82 13 -74 -33 -112 600 -33 537
-36 572 -58 621 -23 50 -23 51 -4 75 14 18 17 34 13 62 -3 25 0 45 10 61 13
19 13 31 3 74 -6 29 -10 54 -7 56 2 2 146 115 319 251 434 342 588 468 568
465 -2 -1 -23 -15 -47 -33z m-166 -2137 c353 -61 645 -207 860 -431 138 -144
229 -298 295 -498 55 -167 54 -166 24 -186 -24 -15 -41 -16 -211 -4 -202 13
-766 7 -1047 -11 -88 -5 -161 -8 -164 -5 -3 2 -24 237 -46 522 -36 444 -40
523 -29 550 7 18 13 47 13 64 l0 32 98 -7 c53 -4 147 -16 207 -26z m-705 -39
c0 -4 11 -24 24 -43 22 -33 24 -48 45 -464 12 -236 25 -475 28 -531 l6 -103
-39 -2 -39 -1 37 -4 c35 -4 36 -6 42 -51 3 -26 8 -105 12 -176 l6 -129 -243 7
c-316 8 -609 29 -944 66 -148 17 -283 33 -300 35 -22 4 -26 3 -15 -4 23 -14
331 -68 550 -96 233 -29 519 -52 767 -61 135 -5 183 -10 187 -20 9 -22 -90
-27 -433 -21 -340 6 -461 17 -704 62 -161 29 -261 56 -349 91 -112 46 -110 58
10 98 158 53 482 102 1026 156 165 17 308 32 316 34 44 11 -300 4 -483 -9
-400 -29 -720 -72 -861 -115 -37 -12 -71 -19 -74 -15 -3 3 0 55 6 115 63 565
419 953 1028 1121 170 47 394 81 394 60z m349 -586 c18 -253 33 -473 34 -490
l2 -30 -104 -10 c-71 -7 -104 -7 -107 0 -2 5 -15 215 -29 465 -14 250 -26 471
-28 492 l-2 36 70 -5 c38 -3 81 0 95 5 14 5 28 7 31 3 3 -3 20 -213 38 -466z
m1346 -563 l60 -8 -115 -56 c-246 -120 -589 -207 -998 -253 -79 -9 -146 -14
-149 -12 -2 3 -9 54 -13 114 -5 59 -12 134 -15 165 l-6 57 78 4 c132 7 1094
-2 1158 -11z m-1304 -9 c0 -10 6 -87 12 -171 7 -84 11 -155 8 -158 -2 -2 -52
-4 -111 -4 l-107 0 -6 113 c-4 61 -7 138 -7 169 l0 57 68 4 c37 2 84 4 105 5
29 2 37 -2 38 -15z m1570 -25 l39 -11 -34 -23 c-72 -49 -309 -130 -566 -193
-175 -42 -248 -57 -240 -48 3 3 52 17 109 32 202 51 408 131 541 210 82 48 94
51 151 33z m-21 -141 c0 -2 -12 -32 -26 -68 -22 -54 -30 -103 -50 -309 -13
-135 -27 -263 -29 -286 l-6 -40 -157 53 c-338 113 -764 204 -1074 229 l-87 7
-7 44 c-3 24 -5 45 -3 47 2 2 121 20 264 40 464 66 854 158 1100 260 58 24 75
29 75 23z m-3293 -196 c126 -52 372 -104 648 -138 107 -13 223 -17 487 -17
l348 -1 0 -27 c0 -28 0 -28 -70 -28 -243 0 -644 -78 -881 -170 -123 -48 -258
-113 -263 -126 -3 -7 -8 -109 -12 -226 -5 -130 -11 -205 -16 -193 -4 11 -50
192 -102 402 -55 223 -103 396 -114 415 -12 18 -41 53 -66 78 -71 69 -65 74
41 31z m2018 -21 c-64 -13 -181 -23 -173 -15 7 7 129 22 183 22 25 1 23 -1
-10 -7z m-245 -19 c0 -5 -30 -12 -67 -16 -38 -3 -87 -8 -110 -11 -34 -4 -43
-2 -43 10 0 11 15 16 63 19 130 7 157 7 157 -2z m10 -131 l0 -40 -109 0 -109
0 -5 28 c-3 15 -4 29 -2 31 4 3 136 17 193 20 31 1 32 0 32 -39z"/>
<path d="M11488 7138 c-283 -208 -772 -578 -779 -591 -4 -6 -2 -35 4 -64 10
-46 9 -55 -8 -73 -16 -18 -17 -25 -7 -52 10 -28 9 -34 -13 -60 -31 -37 -31
-39 1 -93 25 -44 26 -48 50 -512 13 -258 24 -490 24 -518 l0 -50 -48 -3 c-26
-1 -96 -11 -157 -22 -554 -100 -942 -348 -1137 -726 -90 -173 -138 -366 -138
-553 0 -84 0 -85 -35 -117 -64 -58 -41 -108 70 -160 96 -44 213 -77 403 -114
270 -52 394 -62 782 -66 l355 -3 0 -23 c0 -22 -4 -23 -115 -29 -377 -21 -754
-115 -1036 -257 l-62 -31 -6 -88 c-3 -48 -9 -149 -12 -223 l-7 -135 -103 413
-102 412 -72 80 c-102 113 -108 108 -15 -10 28 -36 54 -70 58 -76 4 -7 23 -90
42 -185 20 -96 71 -334 115 -529 l78 -355 6 -235 c12 -451 55 -824 132 -1137
100 -412 245 -676 442 -807 103 -68 171 -87 347 -97 83 -4 195 -15 250 -25
145 -25 547 -25 702 -1 141 23 289 58 407 98 162 55 455 208 494 257 6 9 12
27 12 40 0 13 9 37 20 52 29 41 47 96 86 269 104 465 182 1010 204 1427 20
369 -18 659 -101 775 -20 28 -20 31 -4 321 15 254 20 305 43 380 24 84 27 89
73 118 84 55 89 126 10 157 -34 13 -38 18 -31 37 19 52 -84 352 -171 498 -262
436 -699 680 -1304 728 -83 7 -151 13 -151 14 -2 1 -54 631 -71 849 -5 59 -1
96 12 152 l18 73 -25 31 -26 30 19 50 c11 30 16 62 13 79 -6 28 1 33 393 282
219 139 405 259 413 267 13 11 13 16 0 36 -7 12 -27 51 -42 87 -21 47 -27 55
-22 30 4 -19 17 -58 29 -86 l23 -52 -422 -254 -421 -254 3 -41 c1 -24 -6 -64
-18 -94 l-21 -52 26 -38 25 -39 -19 -57 -19 -58 40 -554 40 -553 -21 -21 c-17
-18 -33 -22 -79 -21 -101 1 -97 -9 -111 241 -49 829 -57 936 -81 984 l-23 46
23 31 c20 27 22 35 11 58 -10 22 -9 31 5 52 15 23 15 72 -2 115 -4 10 73 76
253 218 439 346 652 518 641 519 -3 0 -75 -51 -160 -112z m-200 -2039 c304
-33 578 -128 802 -277 235 -158 429 -432 514 -726 31 -106 31 -108 7 -130 -18
-16 -33 -17 -213 -5 -212 13 -776 7 -1052 -11 -87 -6 -160 -10 -161 -8 -1 2
-21 237 -44 523 -37 472 -40 524 -26 560 8 22 14 50 15 63 0 26 13 27 158 11z
m-545 -92 c18 -29 27 -64 31 -112 5 -56 37 -666 48 -930 l3 -60 -35 -6 -35 -6
36 -2 37 -1 7 -147 c3 -82 7 -159 8 -173 l2 -25 -225 2 c-235 2 -456 14 -725
39 -161 15 -470 49 -535 59 -23 4 -30 2 -20 -4 22 -13 328 -67 510 -91 249
-31 457 -49 738 -62 196 -9 262 -15 262 -24 0 -22 -102 -27 -434 -21 -378 6
-569 27 -851 91 -139 32 -285 89 -285 111 0 19 86 52 205 80 169 40 570 93
1055 140 91 9 170 18 175 21 22 10 -451 -6 -615 -21 -418 -37 -595 -65 -787
-121 -21 -6 -22 -4 -17 47 24 246 78 430 177 592 209 346 570 559 1107 652
128 22 135 21 163 -28z m332 -559 c19 -262 35 -485 35 -496 0 -17 -11 -20
-105 -28 l-104 -9 -5 50 c-3 28 -15 217 -26 420 -11 204 -23 407 -27 452 l-6
82 74 -6 c41 -3 85 0 99 5 14 5 26 9 27 8 2 -1 19 -217 38 -478z m1350 -556
l60 -8 -105 -51 c-270 -131 -656 -225 -1101 -269 l-65 -6 -12 149 c-17 214
-24 191 61 196 122 7 1098 -3 1162 -11z m-1304 -77 c4 -44 10 -122 14 -172 l7
-93 -110 0 -110 0 -6 63 c-3 34 -8 110 -11 169 l-6 107 68 4 c37 2 86 3 108 3
l40 -1 6 -80z m1574 41 l30 -13 -40 -25 c-48 -30 -220 -94 -365 -136 -136 -39
-419 -104 -432 -100 -5 2 34 14 89 27 195 47 483 162 598 239 35 24 77 27 120
8z m-55 -203 c-28 -67 -42 -173 -76 -566 -6 -66 -9 -77 -23 -71 -64 26 -327
110 -436 139 -239 64 -556 121 -790 143 l-80 7 -3 46 -3 46 128 17 c347 47
625 99 849 157 113 29 351 106 415 133 19 9 37 15 41 16 3 0 -7 -30 -22 -67z
m-773 -79 c-3 -3 -12 -4 -19 -1 -8 3 -5 6 6 6 11 1 17 -2 13 -5z m-517 -80
c-98 -14 -136 -17 -127 -7 8 7 120 20 177 20 19 0 -3 -5 -50 -13z m-200 -13
c0 -5 -35 -12 -77 -16 -124 -11 -146 -11 -150 2 -4 12 20 14 180 21 26 1 47
-2 47 -7z m4 -107 c3 -9 6 -27 6 -40 l0 -25 -112 3 -113 3 -3 27 c-3 29 6 32
123 41 86 7 93 7 99 -9z"/>
</g>
</svg>
