<?xml version="1.0" standalone="no"?>
<!DOCTYPE svg PUBLIC "-//W3C//DTD SVG 20010904//EN"
 "http://www.w3.org/TR/2001/REC-SVG-20010904/DTD/svg10.dtd">
<svg version="1.0" xmlns="http://www.w3.org/2000/svg"
 width="1280.000000pt" height="1214.000000pt" viewBox="0 0 1280.000000 1214.000000"
 preserveAspectRatio="xMidYMid meet">
<g transform="translate(0.000000,1214.000000) scale(0.100000,-0.100000)"
fill="#bc2739" stroke="none">
<path d="M4000 11925 l0 -215 -1320 0 -1320 0 0 -319 0 -320 -129 -328 c-71
-180 -192 -488 -269 -683 -139 -352 -274 -696 -543 -1377 -76 -194 -202 -514
-280 -710 l-140 -358 3 -280 3 -280 33 -69 c62 -132 205 -239 377 -283 57 -15
113 -18 305 -18 216 0 242 2 315 23 105 30 186 75 257 141 l58 53 0 -3166 0
-3166 -475 0 -475 0 0 -285 0 -285 6200 0 6200 0 0 285 0 285 -555 0 -555 0 0
3066 0 3065 58 -8 c31 -4 152 -8 267 -8 165 1 225 5 280 18 196 49 354 180
400 333 10 35 15 96 15 209 l0 160 -74 190 c-41 105 -205 528 -366 940 -161
413 -386 991 -500 1285 -115 294 -263 674 -329 845 -95 242 -121 320 -121 357
0 33 4 47 13 46 9 -2 13 68 15 320 l2 322 -1320 0 -1320 0 0 215 0 215 -150 0
-150 0 0 -215 0 -215 -2055 0 -2055 0 0 215 0 215 -150 0 -150 0 0 -215z"/>
</g>
</svg>
