<?xml version="1.0" standalone="no"?>
<!DOCTYPE svg PUBLIC "-//W3C//DTD SVG 20010904//EN"
 "http://www.w3.org/TR/2001/REC-SVG-20010904/DTD/svg10.dtd">
<svg version="1.0" xmlns="http://www.w3.org/2000/svg"
 width="1280.000000pt" height="1280.000000pt" viewBox="0 0 1280.000000 1280.000000"
 preserveAspectRatio="xMidYMid meet">
<g transform="translate(0.000000,1280.000000) scale(0.100000,-0.100000)"
fill="#f8cd46" stroke="none">
<path d="M6480 10869 c-419 -29 -931 -118 -1324 -229 -1030 -292 -1850 -870
-2474 -1743 -510 -713 -903 -1688 -1152 -2856 -44 -207 -70 -269 -248 -591
-57 -104 -105 -204 -117 -247 l-21 -72 -42 24 c-39 22 -42 23 -42 5 0 -17 -6
-18 -49 -13 -86 10 -89 -1 -24 -97 31 -47 81 -112 110 -144 74 -79 78 -94 42
-131 -36 -39 -59 -94 -59 -145 0 -39 1 -40 33 -40 18 0 43 7 55 16 20 14 22
14 22 0 0 -21 27 -20 39 1 8 16 11 15 30 -7 12 -14 35 -51 52 -83 28 -54 101
-137 120 -137 5 0 12 14 16 30 7 35 22 48 33 29 5 -7 17 -13 27 -15 19 -2 364
-125 484 -173 230 -91 230 -91 473 -328 455 -446 671 -616 991 -778 514 -261
1120 -430 1825 -509 515 -58 1144 -66 1585 -21 913 93 1760 416 2500 954 454
330 934 801 1257 1235 378 506 623 1022 778 1636 75 301 96 352 298 731 74
138 102 237 102 354 0 134 -44 248 -132 341 -66 70 -119 103 -258 159 -272
111 -361 167 -407 259 -55 108 -190 337 -279 471 -411 623 -990 1175 -1621
1548 -546 323 -1192 517 -1883 566 -165 12 -569 12 -740 0z"/>
</g>
</svg>
