<?xml version="1.0" standalone="no"?>
<!DOCTYPE svg PUBLIC "-//W3C//DTD SVG 20010904//EN"
 "http://www.w3.org/TR/2001/REC-SVG-20010904/DTD/svg10.dtd">
<svg version="1.0" xmlns="http://www.w3.org/2000/svg"
 width="1280.000000pt" height="970.000000pt" viewBox="0 0 1280.000000 970.000000"
 preserveAspectRatio="xMidYMid meet">
<g transform="translate(0.000000,970.000000) scale(0.100000,-0.100000)"
fill="#882138" stroke="none">
<path d="M1712 9503 c-78 -358 -136 -682 -185 -1043 l-22 -165 -44 85 c-181
355 -468 625 -836 789 -186 83 -359 133 -505 145 l-65 6 47 -14 c219 -64 483
-300 703 -631 71 -107 170 -283 220 -393 l25 -54 -23 6 c-174 50 -416 20 -544
-68 -72 -50 -98 -107 -97 -216 0 -49 8 -110 19 -145 25 -86 87 -228 95 -218 3
4 12 44 19 88 35 215 135 438 221 488 28 17 31 17 62 1 50 -26 160 -141 213
-223 96 -148 199 -400 256 -623 30 -116 71 -339 64 -346 -2 -2 -25 8 -52 21
-174 88 -428 100 -553 25 -71 -43 -171 -130 -189 -167 -46 -89 -33 -193 42
-353 43 -89 157 -274 157 -253 0 6 -7 35 -16 65 -8 30 -17 109 -20 175 -7 131
7 222 46 312 l21 50 64 6 c114 11 228 -30 321 -115 97 -89 166 -235 198 -419
8 -46 14 -85 12 -86 -1 -1 -33 9 -71 23 -148 55 -295 15 -424 -114 -36 -36
-61 -67 -55 -69 5 -2 43 8 84 22 94 32 142 32 208 -1 38 -19 59 -38 77 -69 27
-44 77 -166 72 -172 -2 -1 -30 2 -63 7 -75 12 -264 13 -264 1 0 -5 7 -44 15
-86 15 -82 35 -121 98 -198 46 -55 49 -49 -64 -117 -99 -59 -229 -205 -249
-281 -12 -44 -49 -94 -50 -67 0 36 -21 26 -50 -24 -38 -66 -70 -167 -70 -221
0 -30 -11 -59 -40 -108 -50 -84 -95 -196 -120 -297 -22 -92 -26 -133 -16 -188
5 -28 2 -55 -10 -90 -9 -27 -18 -76 -20 -109 -2 -52 -22 -132 -23 -97 -1 6 -5
12 -10 12 -5 0 -12 -24 -16 -53 -9 -66 -32 -598 -27 -615 3 -8 13 -12 23 -9
23 6 29 -17 29 -133 0 -95 21 -269 40 -341 6 -21 21 -49 34 -61 17 -16 26 -39
30 -78 14 -109 115 -358 171 -420 12 -14 51 -74 85 -133 67 -116 110 -173 228
-304 48 -55 81 -83 95 -83 28 -1 57 -23 57 -43 0 -8 17 -22 38 -30 52 -21 327
-92 432 -112 285 -54 311 -56 527 -57 116 0 220 5 230 10 10 5 68 15 128 21
61 7 132 17 158 22 26 5 52 9 57 9 4 0 22 -24 38 -53 31 -56 83 -107 108 -107
18 0 38 -41 58 -117 24 -95 150 -333 188 -356 25 -15 88 -103 88 -122 0 -8 -5
-15 -11 -15 -17 0 123 -141 224 -226 48 -40 115 -87 150 -104 34 -17 67 -37
72 -44 22 -28 275 -134 370 -154 40 -9 212 -19 355 -22 18 0 21 -3 11 -9 -31
-20 20 -22 222 -11 215 11 316 23 326 38 3 5 56 16 116 26 146 23 195 36 431
112 221 72 273 96 254 119 -9 11 -6 17 12 28 13 8 35 17 50 21 52 12 212 230
312 425 37 73 82 151 99 174 18 24 39 53 47 66 l16 24 41 -21 c60 -31 215 -72
308 -82 100 -10 114 -16 108 -40 -7 -28 21 -36 167 -49 69 -7 168 -16 220 -21
176 -17 302 -10 248 14 -7 3 14 3 47 1 77 -6 88 -6 158 1 41 4 62 2 74 -8 23
-18 196 -15 298 7 44 9 116 33 160 52 68 31 90 36 145 35 68 -2 159 17 211 44
25 12 28 18 19 29 -13 15 10 28 95 55 86 27 181 101 289 225 l44 49 52 -57
c60 -66 155 -127 209 -134 l37 -5 12 78 c7 44 15 116 19 160 l6 82 70 -42 c38
-22 84 -58 101 -79 28 -35 31 -47 35 -118 3 -71 0 -85 -28 -144 l-30 -65 74
51 c76 54 111 94 141 164 23 51 24 183 2 243 -13 35 -13 42 -2 42 29 0 142
-44 228 -89 213 -110 317 -286 298 -503 l-4 -56 -47 -12 c-132 -34 -307 -21
-453 34 -49 18 -88 30 -87 27 1 -19 229 -202 295 -236 66 -35 86 -40 152 -43
70 -3 81 -1 117 23 88 60 155 128 181 183 57 121 68 325 25 462 -11 35 -18 66
-16 68 7 7 118 -29 248 -80 372 -146 674 -359 771 -546 44 -86 43 -90 -52
-140 -99 -52 -261 -91 -386 -93 -129 -3 -129 -6 -9 -80 122 -74 146 -85 221
-99 66 -12 134 1 177 35 47 36 122 170 146 260 16 59 21 109 21 192 l0 112 71
-48 c225 -152 494 -404 619 -581 86 -120 164 -275 185 -365 25 -108 32 -118
32 -50 4 311 -107 700 -275 963 -114 178 -290 358 -484 494 -24 17 -19 18 130
12 249 -10 1154 27 1175 48 7 7 -76 66 -225 160 -224 141 -458 267 -703 379
l-169 77 99 31 c387 120 642 362 733 695 19 68 21 92 14 198 l-7 121 -17 -69
c-89 -349 -322 -552 -700 -609 -99 -15 -350 -21 -349 -7 0 4 33 33 74 64 122
94 259 269 318 405 40 89 50 161 44 298 -10 207 -54 332 -157 436 -65 65 -177
124 -260 137 -114 17 -288 -19 -394 -82 -23 -14 -92 -60 -154 -104 l-112 -79
37 -7 c21 -3 74 -6 118 -6 322 -2 543 -82 655 -237 21 -30 47 -75 56 -99 l16
-43 -58 -108 c-100 -184 -211 -271 -387 -307 -68 -14 -132 -16 -473 -10 -217
4 -394 9 -394 11 0 3 20 27 43 54 54 61 129 188 151 252 33 100 17 250 -42
380 -75 164 -186 216 -437 203 -71 -4 -148 -10 -170 -14 -38 -7 -36 -8 64 -31
126 -29 235 -81 311 -149 l55 -50 -21 -43 c-54 -111 -255 -322 -394 -413 -69
-46 -214 -123 -272 -145 l-25 -9 33 81 c49 121 67 213 62 315 -5 99 -19 135
-79 202 -34 38 -40 41 -35 20 3 -14 9 -64 12 -112 12 -151 -29 -287 -103 -346
-38 -30 -233 -132 -279 -146 -18 -6 -22 -1 -28 31 -3 21 -6 61 -6 88 0 67 -25
156 -49 175 -10 8 -30 38 -44 65 -14 28 -46 74 -71 102 -30 33 -46 60 -46 77
0 15 -6 39 -13 54 -16 32 -9 299 8 295 19 -5 -2 446 -26 542 -17 67 -19 71
-29 56 -5 -9 -12 5 -20 43 -6 32 -9 60 -6 63 3 3 -2 22 -11 42 -10 23 -17 67
-18 121 -2 125 -59 283 -162 452 -19 31 -32 61 -29 66 9 15 -30 130 -64 190
-30 52 -43 61 -55 42 -9 -15 -27 -1 -21 16 3 8 1 13 -5 11 -6 -1 -16 15 -23
35 -7 20 -32 60 -55 87 -42 50 -154 141 -173 141 -5 0 -29 14 -54 32 l-44 31
36 40 c48 53 80 128 88 205 l7 62 -73 0 c-40 0 -104 -5 -142 -10 -38 -6 -71
-8 -73 -6 -3 2 6 37 19 77 46 145 142 195 296 155 29 -7 52 -10 52 -5 0 14
-97 94 -151 124 -48 27 -63 30 -139 30 -71 0 -94 -4 -142 -27 -32 -15 -58 -24
-58 -20 0 4 7 50 15 102 27 178 80 295 174 383 72 68 135 95 252 111 l46 7 28
-62 c55 -124 73 -243 55 -381 -6 -48 -13 -96 -16 -105 -4 -13 0 -11 16 6 37
43 93 153 127 251 57 164 42 273 -44 337 -21 15 -56 42 -78 61 -60 50 -129 66
-255 59 -111 -6 -186 -26 -268 -72 -25 -14 -47 -24 -48 -22 -5 5 14 168 32
277 42 248 138 524 234 667 42 61 117 140 151 158 25 14 29 12 71 -25 70 -61
155 -245 188 -405 19 -92 24 -94 53 -23 37 88 57 180 57 266 0 84 -15 123 -63
170 -96 92 -365 121 -529 57 -32 -13 100 284 205 460 165 277 382 497 554 560
76 29 72 34 -14 18 -320 -60 -653 -250 -859 -491 -112 -130 -220 -305 -279
-452 -9 -25 -19 -40 -21 -35 -2 6 -17 89 -33 185 -33 189 -94 482 -136 651
-51 206 -109 409 -115 401 -14 -15 -80 -183 -130 -327 -90 -260 -139 -436
-200 -708 l-22 -98 -40 78 c-102 199 -248 368 -394 455 -161 96 -366 139 -562
117 -94 -10 -107 -12 -154 -25 -21 -6 -22 -5 -8 11 25 30 153 130 217 169 34
21 90 49 125 62 l63 25 -55 -6 c-134 -14 -382 -96 -555 -182 -401 -202 -729
-555 -906 -978 -21 -50 -40 -83 -43 -75 -2 8 -16 87 -31 175 -30 180 -121 625
-166 815 -53 226 -152 581 -160 573 -3 -5 -36 -82 -72 -173 -134 -340 -260
-752 -327 -1065 -10 -49 -24 -114 -30 -144 l-12 -54 -52 99 c-101 194 -224
359 -346 464 -81 70 -218 154 -309 189 -86 33 -256 71 -323 71 l-43 1 30 24
c45 38 201 111 285 136 105 30 318 37 414 15 38 -9 71 -14 73 -12 8 8 -126 46
-215 61 -108 19 -325 19 -433 0 -349 -60 -611 -276 -790 -650 -26 -56 -49 -93
-52 -85 -3 8 -19 67 -36 130 -48 175 -136 437 -206 616 -65 167 -203 464 -215
464 -4 0 -25 -84 -48 -187z m4450 -527 c185 -36 326 -121 432 -260 112 -148
166 -294 220 -595 l6 -33 -63 54 c-215 188 -421 279 -597 263 -282 -26 -483
-157 -541 -352 l-12 -43 -53 0 c-63 0 -187 -23 -237 -44 -21 -8 -37 -13 -37
-10 0 17 85 216 150 349 123 253 238 432 382 597 54 61 75 78 100 81 75 9 181
6 250 -7z m-3244 -96 c88 -25 175 -67 258 -126 66 -46 177 -161 208 -214 l18
-32 -109 7 c-132 9 -195 -4 -330 -70 -134 -64 -250 -145 -371 -259 l-44 -41 7
50 c40 318 115 537 232 675 29 36 37 36 131 10z m444 -591 c60 -39 132 -118
164 -180 36 -71 86 -279 68 -279 -4 0 -25 17 -48 38 -126 116 -382 269 -492
293 -30 7 -53 17 -51 22 6 18 104 68 204 103 54 18 100 34 102 34 2 0 26 -14
53 -31z m2892 -109 c109 -36 179 -76 233 -132 100 -104 136 -199 183 -488 17
-107 44 -266 61 -353 16 -88 29 -161 29 -163 0 -2 -20 9 -45 25 -25 16 -85 46
-133 67 -81 36 -94 38 -183 39 -93 0 -98 -1 -182 -43 -113 -56 -187 -126 -212
-202 -33 -101 -18 -276 38 -440 l22 -65 6 125 c7 138 28 219 80 308 36 64 40
64 164 2 146 -74 307 -202 420 -335 40 -48 125 -168 125 -177 0 -2 -33 4 -72
14 -95 25 -226 27 -298 5 -62 -18 -158 -82 -184 -122 -10 -15 -16 -28 -14 -31
2 -2 34 6 72 17 148 44 289 41 361 -9 32 -23 214 -244 215 -262 0 -7 -110 -40
-135 -41 -52 -1 -106 -37 -183 -120 -43 -47 -87 -100 -98 -117 -10 -18 -27
-32 -37 -32 -21 0 -114 -84 -122 -111 -4 -11 -11 -17 -16 -14 -13 9 -11 59 4
75 6 8 -5 -1 -26 -20 -52 -47 -79 -94 -75 -127 2 -22 8 -28 26 -27 12 0 22 -1
22 -2 0 -1 -16 -35 -35 -75 -19 -41 -35 -82 -35 -93 0 -10 -22 -60 -49 -110
-27 -50 -61 -130 -77 -178 -27 -84 -43 -98 -44 -38 -1 22 -4 19 -25 -20 -55
-102 -82 -243 -52 -269 11 -8 13 -36 9 -118 -2 -60 -8 -112 -13 -118 -5 -5 -9
-20 -9 -35 -1 -28 -4 -25 -50 50 -28 46 -35 49 -44 18 -5 -22 -7 -21 -29 12
-13 19 -29 51 -35 70 -27 80 -175 229 -286 285 -28 14 -66 39 -85 54 l-34 28
45 55 c65 80 94 148 105 247 l9 84 -145 -6 c-80 -4 -163 -11 -183 -16 -46 -11
-46 -10 -12 95 32 99 65 148 123 182 42 25 55 27 146 27 70 -1 111 -6 138 -17
20 -10 37 -13 37 -9 0 16 -127 128 -175 154 -64 36 -138 57 -201 57 -58 0
-162 -29 -211 -60 -18 -11 -33 -16 -33 -11 0 5 5 45 10 88 32 242 96 398 210
514 89 90 183 132 343 154 l47 6 35 -73 c55 -116 76 -213 77 -358 1 -111 -11
-221 -29 -267 -16 -41 21 6 72 90 93 157 155 337 155 453 0 112 -31 161 -164
264 -128 99 -209 120 -389 100 -126 -14 -205 -37 -296 -86 -35 -19 -66 -33
-68 -30 -6 6 11 163 33 306 63 409 219 807 386 990 33 35 110 100 120 100 4 0
8 -19 8 -43 0 -91 52 -226 128 -332 20 -27 71 -87 114 -132 51 -53 78 -90 78
-105 1 -56 17 -48 49 23 46 102 74 228 75 334 1 111 -13 154 -70 216 l-44 46
14 40 c21 59 52 116 83 153 34 42 101 90 123 90 9 0 56 -13 104 -30z m-3368
-261 c87 -26 199 -75 244 -105 106 -72 190 -186 241 -325 24 -67 89 -390 89
-445 0 -11 -11 -8 -42 14 -98 67 -232 112 -332 112 -86 0 -256 -65 -366 -139
-24 -17 -46 -29 -47 -27 -2 2 6 63 16 137 11 74 31 238 46 364 26 236 47 367
67 410 6 14 12 25 14 25 1 0 33 -9 70 -21z m529 -1164 c30 -62 79 -224 71
-233 -2 -1 -43 17 -92 42 -120 60 -191 79 -289 78 -75 -1 -100 -6 -210 -46
-28 -10 29 40 144 127 52 39 138 93 190 120 l96 49 28 -33 c15 -19 43 -65 62
-104z m149 -284 c-8 -9 -22 12 -17 26 6 15 7 14 13 -3 4 -10 6 -21 4 -23z
m-668 -182 c3 -5 -14 -9 -37 -9 -34 0 -39 3 -30 14 12 14 57 10 67 -5z m259
-150 c74 -23 222 -142 333 -269 64 -73 202 -259 202 -272 0 -3 -33 5 -72 15
-57 16 -106 21 -223 21 -172 1 -206 -8 -316 -85 -48 -34 -63 -41 -67 -29 -5
15 -76 87 -165 167 -31 28 -66 48 -103 59 l-57 16 6 107 c9 187 34 235 139
273 44 16 72 18 168 14 63 -2 133 -10 155 -17z m-499 -376 c-3 -3 -119 26
-122 30 -1 1 16 31 39 66 l40 63 23 -78 c12 -44 21 -80 20 -81z m788 -287 c26
-8 62 -26 81 -40 40 -31 129 -138 208 -252 l56 -80 -67 -22 c-37 -12 -95 -29
-129 -37 -63 -15 -147 -61 -138 -76 3 -4 1 -10 -4 -14 -12 -7 -71 77 -71 102
0 11 -20 58 -43 104 -42 82 -43 85 -20 81 21 -4 23 -1 23 30 0 37 -33 90 -89
143 l-31 29 11 -32 c6 -18 8 -39 5 -48 -4 -11 -19 -1 -60 43 -30 32 -53 59
-51 61 2 2 25 7 52 12 80 13 216 11 267 -4z"/>
<path d="M6978 1043 c7 -3 16 -2 19 1 4 3 -2 6 -13 5 -11 0 -14 -3 -6 -6z"/>
</g>
</svg>
